<svg width="280" height="65" viewBox="0 0 280 65" fill="none" xmlns="http://www.w3.org/2000/svg">
<g clip-path="url(#clip0_188_2014)">
<path d="M38.6115 56.7989V52.4511C38.6115 52.1612 38.6115 51.8642 38.6115 51.5743V46.3136C38.6115 46.0237 38.6115 45.741 38.6115 45.4585L37.6491 46.3136L36.6614 47.1831L35.657 48.0599L34.6609 48.9294L34.1206 49.4149V55.7336C34.2722 55.7817 34.4166 55.8451 34.551 55.9221C34.8941 56.1359 35.139 56.4461 35.2433 56.7989C35.2904 56.9329 35.3161 57.0719 35.3192 57.2119C35.3146 57.3672 35.2833 57.521 35.2265 57.6684C35.1127 58.0312 34.8447 58.344 34.4751 58.5452C34.2003 58.6996 33.8792 58.7817 33.5508 58.7817C33.2225 58.7817 32.9012 58.6996 32.6264 58.5452C32.2619 58.3396 31.9953 58.0284 31.8752 57.6684C31.8212 57.5206 31.7927 57.3668 31.7907 57.2119C31.7955 57.0725 31.818 56.934 31.8582 56.7989C31.9739 56.4565 32.2171 56.1562 32.5505 55.9438C32.6879 55.8668 32.8351 55.8035 32.9894 55.7555V49.0163L33.0823 48.9294L34.0783 48.0599L35.066 47.1831L36.0536 46.3136L37.0498 45.4368L38.0375 44.56L38.5945 44.0672V42.8136C38.5945 42.5237 38.5945 42.2339 38.5945 41.9441V32.5747V24.4661C38.5945 24.1689 38.5945 23.879 38.5945 23.5893V22.7125C38.5945 22.4226 38.5945 22.1328 38.5945 21.8429V19.2198C38.5945 18.9299 38.5945 18.64 38.5945 18.343V14.8503C38.5945 14.5604 38.5945 14.2705 38.5945 13.9735V13.0604C38.5945 12.7851 38.5945 12.5025 38.5945 12.2271C38.5945 11.9518 38.5945 11.6474 38.5945 11.3576C38.5945 11.0677 38.5945 10.7706 38.5945 10.4808C38.5945 10.1909 38.5945 9.90108 38.5945 9.60398C38.5945 9.30688 38.5945 9.02428 38.5945 8.73442C38.5945 8.44458 38.5945 8.14749 38.5945 7.85763C38.5945 7.56778 38.544 7.27792 38.5186 6.98808C38.5186 6.80692 38.5186 6.62577 38.4679 6.45186C38.4173 6.27795 38.4173 6.22722 38.392 6.11128C38.2712 5.50315 38.0436 4.91432 37.7167 4.36493C37.546 4.06244 37.3485 3.77173 37.1257 3.49538C36.8758 3.184 36.5934 2.89294 36.2816 2.62583C35.8939 2.29375 35.4666 1.99745 35.0069 1.74179L34.8127 1.64758V19.0894L34.6693 19.2198L33.7155 20.0966L32.7361 20.9661L31.7653 21.8429L30.7862 22.7125L29.807 23.5893L28.8362 24.4661L27.857 25.3356L27.0128 26.0603V35.4152C27.2865 35.499 27.5327 35.6381 27.7304 35.8209C27.9837 36.066 28.1428 36.3722 28.1861 36.6977C28.1945 36.7627 28.1945 36.8284 28.1861 36.8934C28.1845 37.1287 28.124 37.361 28.0089 37.5746C27.8844 37.805 27.695 38.0052 27.4576 38.1571C27.2203 38.3088 26.9428 38.4075 26.6499 38.444C26.574 38.448 26.4979 38.448 26.422 38.444H26.194C25.9021 38.4077 25.6256 38.3089 25.3896 38.1571C25.1537 38.0051 24.966 37.8048 24.8434 37.5746C24.7281 37.361 24.6677 37.1287 24.666 36.8934C24.6619 36.8283 24.6619 36.7629 24.666 36.6977C24.7123 36.3715 24.8745 36.0654 25.1303 35.8209C25.3265 35.6399 25.5694 35.5009 25.8394 35.4152V25.6979L26.2446 25.3356L27.2239 24.4661L28.2031 23.5893L29.1739 22.7125L30.153 21.8429L31.1322 20.9661L32.103 20.0966L33.1245 19.2198L33.7069 18.698V1.10412L33.1245 0.872236L32.7447 0.734558C32.1677 0.535955 31.5634 0.402004 30.9466 0.336014V17.5386L29.9926 18.3792L28.9881 19.2198L28.0005 20.0966L27.0044 20.9661L26.0168 21.8429L25.029 22.7125L24.0415 23.5893L23.0537 24.4661L22.792 24.6907V31.937C23.0587 32.0176 23.2988 32.1518 23.4927 32.3282C23.754 32.5704 23.9196 32.8773 23.9654 33.205C23.9746 33.2774 23.9746 33.3502 23.9654 33.4224C23.9655 33.6479 23.9079 33.8705 23.7965 34.0746C23.6882 34.2847 23.5253 34.471 23.3205 34.6191C23.1158 34.7672 22.8745 34.8735 22.6148 34.9296C22.3618 34.9779 22.0996 34.9779 21.8466 34.9296C21.5788 34.8741 21.3296 34.7661 21.1188 34.614C20.9078 34.4619 20.7409 34.2698 20.6311 34.0528C20.5263 33.8471 20.4718 33.6252 20.4706 33.4007C20.4616 33.3284 20.4616 33.2555 20.4706 33.1833C20.5166 32.8556 20.6821 32.5487 20.9433 32.3065C21.1354 32.1316 21.3726 31.9975 21.6356 31.9153V24.2993L22.4376 23.5748L23.4251 22.698L24.4213 21.8284L25.409 20.9516L26.3966 20.0821L27.3843 19.2053L28.3719 18.3285L29.3596 17.459L29.7732 17.0966V0.22732C29.1569 0.183842 28.5407 0.14761 27.9246 0.0751482C27.6121 0.0751482 27.2998 0.017178 26.9876 0.00268555V12.7416L26.5908 13.1039L25.62 13.9735L24.683 14.8503L23.7038 15.7271L22.9103 16.4518C22.9419 16.5058 22.97 16.5616 22.9946 16.6184C23.0659 16.7906 23.103 16.9719 23.1044 17.1546C23.1033 17.269 23.0891 17.3831 23.0621 17.4952C22.973 17.835 22.7566 18.1404 22.446 18.3647C22.1389 18.5932 21.7464 18.7189 21.3401 18.7189C20.934 18.7189 20.5413 18.5932 20.2343 18.3647C19.9233 18.1419 19.7092 17.8354 19.6265 17.4952C19.5926 17.384 19.5756 17.2695 19.5758 17.1546C19.5801 16.9715 19.6199 16.7902 19.694 16.6184C19.7678 16.4305 19.8841 16.257 20.0363 16.1078C20.1883 15.9586 20.3733 15.8366 20.5803 15.7488C20.8149 15.6429 21.0751 15.5857 21.3401 15.5821C21.6079 15.5846 21.8713 15.6418 22.1083 15.7488L23.0791 14.872L24.0583 13.9952L25.029 13.1257L25.8732 12.401V0.0823945C24.6453 0.15855 23.4439 0.426205 22.3279 0.872236C22.0154 1.00267 21.7031 1.14035 21.3992 1.29252C21.0954 1.44469 20.859 1.58962 20.5973 1.74904C20.1659 2.01355 19.7596 2.30671 19.3818 2.62583C19.0512 2.89647 18.7437 3.18706 18.4616 3.49538C18.1987 3.77444 17.9562 4.06727 17.7355 4.37217C17.528 4.64512 17.3392 4.9282 17.1701 5.22C16.9995 5.50483 16.8473 5.79754 16.7142 6.09679C16.5791 6.37939 16.4609 6.66925 16.3512 6.97359C16.3005 7.09677 16.2499 7.21996 16.2077 7.35039C16.1612 7.5455 16.0356 7.72013 15.8532 7.84313C15.7136 7.92264 15.5476 7.96081 15.3804 7.95184C14.1354 7.95681 12.9103 8.22034 11.8097 8.71994C11.2683 8.9621 10.7589 9.25363 10.2902 9.58949C9.91941 9.85939 9.57236 10.1525 9.25189 10.4663C8.97253 10.743 8.71586 11.0359 8.48372 11.3431C8.2642 11.6226 8.06408 11.9129 7.88437 12.2126C7.7166 12.4976 7.56723 12.7903 7.43696 13.0894C7.31034 13.372 7.20061 13.6619 7.0993 13.9589C6.99801 14.2561 6.93048 14.5387 6.87138 14.8358C6.80586 15.1258 6.75796 15.4184 6.72787 15.7126C6.72787 15.8937 6.68567 16.0749 6.67723 16.2633C6.66879 16.4518 6.67723 16.4807 6.62658 16.5822C6.6119 16.6901 6.58647 16.7967 6.55062 16.901H11.1766L11.5311 16.5822L12.5103 15.7126L13.4895 14.8358L14.4772 13.9589L15.4564 13.0894L16.4356 12.2126L17.4148 11.3431L18.394 10.4663L18.8076 10.0967C18.7022 9.93931 18.6279 9.76788 18.5882 9.58949C18.5795 9.49543 18.5795 9.40094 18.5882 9.30688C18.589 8.99644 18.6969 8.69317 18.8982 8.43526C19.0995 8.17736 19.3852 7.97637 19.7194 7.85763C19.9177 7.78768 20.1297 7.75079 20.344 7.74894C20.5611 7.75143 20.7757 7.78829 20.9771 7.85763C21.2051 7.93762 21.4118 8.05661 21.5845 8.20734C21.7572 8.35809 21.8924 8.53742 21.9816 8.73442C22.0633 8.92227 22.1062 9.1209 22.1083 9.32137C22.117 9.41543 22.117 9.50993 22.1083 9.60398C22.0421 9.93988 21.8492 10.2479 21.5597 10.4808C21.2438 10.7459 20.8195 10.8942 20.3777 10.8938C20.1452 10.8931 19.9152 10.8512 19.7024 10.7706L19.0441 11.3576L18.0648 12.2271L17.0856 13.1039L16.1064 13.9735L15.1187 14.8503L14.0973 15.7271L13.1181 16.5966L12.1389 17.4734L11.6746 17.8865H5.76555C5.53763 18.0314 5.34347 18.1909 5.13243 18.343C4.73711 18.6174 4.3595 18.9101 4.00128 19.2198C3.68228 19.498 3.38077 19.7907 3.09804 20.0966C2.84478 20.3791 2.59155 20.6618 2.36363 20.9661C2.13571 21.2705 1.97532 21.5458 1.7896 21.8429C1.60389 22.14 1.45194 22.4153 1.29999 22.7125C1.14805 23.0096 1.01298 23.2849 0.886358 23.5893C0.759736 23.8936 0.683762 24.1689 0.590905 24.4661C0.498049 24.7632 0.413634 25.0385 0.33766 25.3356C0.261686 25.6327 0.202596 25.9153 0.202596 26.2341C0.202596 26.553 0.118181 26.8139 0.0844151 27.1037C0.050649 27.3936 0.016883 27.6833 0 27.9805C0 28.0747 0 28.1617 0 28.2559C0 28.4588 0 28.6543 0 28.8574C0 29.0602 0 29.437 0 29.7268C0 30.0167 0.050649 30.3138 0.0844151 30.6036C0.118181 30.8935 0.16883 31.1834 0.22792 31.4731C0.287012 31.763 0.346101 32.0602 0.422075 32.3499C0.498049 32.6398 0.574023 32.937 0.666879 33.2267C0.759736 33.5166 0.852592 33.8065 0.962332 34.0964C1.07207 34.3862 1.18181 34.6833 1.30843 34.9732L1.56168 35.5601C1.60709 35.6515 1.64379 35.7461 1.67142 35.8426C1.74891 36.0797 1.74891 36.3303 1.67142 36.5673C1.67142 36.6253 1.67142 36.6906 1.61233 36.7485C1.51947 37.0384 1.43506 37.3281 1.35908 37.6253C1.28311 37.9224 1.20714 38.2049 1.14804 38.4948C1.08895 38.7847 1.02142 39.0745 0.979214 39.3716C0.983213 39.4344 0.983213 39.4973 0.979214 39.56C0.979214 39.7847 0.928566 40.0165 0.903242 40.2412C0.877917 40.4658 0.835709 40.8281 0.818827 41.118C0.801943 41.4078 0.776619 41.6976 0.768177 41.9948C0.759735 42.2919 0.768177 42.5744 0.768177 42.8643C0.768177 43.1542 0.768177 43.4512 0.768177 43.7411C0.768177 44.031 0.768177 44.2484 0.835709 44.4658L1.76428 43.7411L2.73506 42.8136L3.80713 41.9441L4.87075 41.0673L5.94282 40.1905L6.78697 39.4658V32.8065C6.48177 32.7114 6.21303 32.546 6.01035 32.3282C5.77581 32.0775 5.63462 31.772 5.60515 31.4514C5.60515 31.408 5.60515 31.3718 5.60515 31.3283C5.60962 31.0751 5.68489 30.8266 5.82464 30.6036C5.95786 30.3486 6.17418 30.132 6.44751 29.9801C6.72086 29.8281 7.03956 29.7473 7.36522 29.7473C7.69087 29.7473 8.00956 29.8281 8.28291 29.9801C8.55626 30.132 8.77258 30.3486 8.9058 30.6036C9.04555 30.8266 9.12082 31.0751 9.12527 31.3283C9.12935 31.3693 9.12935 31.4105 9.12527 31.4514C9.10455 31.7518 8.98149 32.0404 8.77139 32.2813C8.5613 32.5223 8.27341 32.7048 7.94345 32.8065V39.9006L7.58892 40.1905L6.51685 41.0673L5.47855 41.9441L4.42336 42.8136L3.34284 43.6904L2.27077 44.56L1.19869 45.4368L0.953891 45.6397C0.953891 45.8643 1.05519 46.0889 1.10584 46.3136C1.15649 46.5382 1.24934 46.8932 1.33376 47.1831C1.41817 47.4729 1.51947 47.77 1.62077 48.0599C1.72207 48.3498 1.85712 48.6396 1.98375 48.9294C2.0344 49.0671 2.08504 49.1975 2.14414 49.3279L2.39739 49.8062C2.54933 50.1034 2.69284 50.4004 2.86167 50.683C3.03051 50.9657 3.24154 51.2699 3.4357 51.5526C3.62985 51.8351 3.86621 52.1467 4.10258 52.4294C4.33893 52.7119 4.60061 53.0235 4.87075 53.2989C5.15666 53.6047 5.46097 53.8973 5.78243 54.1757C6.12854 54.4801 6.49995 54.7771 6.87983 55.0525C7.30797 55.3704 7.75603 55.6679 8.22203 55.9438C8.76593 56.2621 9.32952 56.5547 9.91034 56.8206L10.2311 56.9728C10.6773 57.1631 11.0894 57.407 11.4551 57.6974C11.7702 57.954 12.0531 58.238 12.2993 58.5452C12.5414 58.85 12.8035 59.1428 13.0843 59.422C13.3984 59.7267 13.7309 60.017 14.0804 60.2915C14.4677 60.6074 14.8795 60.9003 15.3129 61.1683C15.8304 61.4921 16.375 61.7828 16.9421 62.0379C17.7634 62.4101 18.6296 62.7041 19.5252 62.9147C20.1315 63.0581 20.7495 63.1623 21.3739 63.2263V45.0744L20.8167 44.5889L19.8207 43.7194L18.8246 42.8426L17.8284 41.973L16.8324 41.0673L15.8363 40.1905L14.8402 39.3208L13.8441 38.444L12.8649 37.5746L11.9025 36.7412V25.2922C11.4942 25.1204 11.1731 24.8267 10.9993 24.4661C10.865 24.1888 10.8298 23.8838 10.898 23.5893C10.9649 23.255 11.1541 22.948 11.4382 22.7125C11.7546 22.4425 12.1825 22.291 12.6285 22.291C13.0745 22.291 13.5024 22.4425 13.8187 22.7125C14.1029 22.948 14.2921 23.255 14.359 23.5893C14.4272 23.8838 14.3919 24.1888 14.2577 24.4661C14.1659 24.6644 14.0268 24.8442 13.8495 24.994C13.6722 25.1438 13.4605 25.2601 13.2278 25.3356C13.1657 25.3591 13.1005 25.3761 13.0337 25.3864V36.379L13.4389 36.734L14.435 37.6108L15.3973 38.444L16.3934 39.3208L17.3895 40.1905L18.3856 41.0673L19.3818 41.9441L20.3777 42.8136L21.3739 43.6904L22.37 44.56L22.4713 44.6542V63.2915C23.3561 63.3101 24.2404 63.2371 25.105 63.0742H25.2824V43.3571L24.683 42.8136L23.6868 41.9441L22.6823 41.0673L21.6862 40.1905L20.6902 39.3208L19.694 38.444L18.6979 37.5746L17.7018 36.6977L16.7058 35.8209L16.1402 35.3355V22.3647C15.8034 22.2687 15.5088 22.0867 15.296 21.8429C15.0731 21.589 14.9438 21.2836 14.9246 20.9661C14.9246 20.9661 14.9246 20.9153 14.9246 20.8864C14.9282 20.6087 15.0154 20.3367 15.1778 20.0966C15.3179 19.8554 15.5334 19.6525 15.8003 19.5108C16.0673 19.3689 16.375 19.2938 16.6888 19.2938C17.0028 19.2938 17.3104 19.3689 17.5774 19.5108C17.8442 19.6525 18.0598 19.8554 18.1998 20.0966C18.366 20.3353 18.4535 20.6083 18.4532 20.8864C18.4532 20.8864 18.4532 20.9372 18.4532 20.9661C18.4329 21.2822 18.3069 21.5868 18.0901 21.8429C17.8749 22.0844 17.5812 22.2659 17.246 22.3647V34.9296L18.2422 35.7992L19.2381 36.676L20.2343 37.5528L21.3064 38.444L22.3025 39.3208L23.2986 40.1905L24.2946 41.0673L25.2908 41.9441L26.2869 42.8136L26.4557 42.9658V63.038H26.7174C27.6246 63.1586 28.5193 63.3403 29.3934 63.5813V47.5454L29.7816 47.1831L30.7186 46.3136L31.6556 45.4368L32.5927 44.56L32.9978 44.1831V30.2051C32.666 30.1016 32.3769 29.9166 32.1667 29.673C31.9566 29.4295 31.8347 29.1382 31.8161 28.8355C31.812 28.7969 31.812 28.7582 31.8161 28.7196C31.826 28.4653 31.9072 28.2168 32.0524 27.9949C32.1888 27.746 32.4049 27.5355 32.6753 27.3881C32.9459 27.2405 33.2599 27.1622 33.5804 27.1622C33.9007 27.1622 34.2147 27.2405 34.4853 27.3881C34.7557 27.5355 34.9718 27.746 35.1082 27.9949C35.2535 28.2168 35.3347 28.4653 35.3446 28.7196C35.3446 28.763 35.3446 28.7921 35.3446 28.8355C35.3199 29.1523 35.1846 29.4554 34.9563 29.7051C34.7501 29.9311 34.4757 30.104 34.1628 30.2051V44.56L33.2258 45.4295L32.2804 46.3136L31.3434 47.1831L30.5498 47.9078V63.7625C31.9531 63.8546 33.358 63.6033 34.6017 63.038L34.7959 62.9436C35.3273 62.703 35.8232 62.4087 36.2732 62.067C36.6123 61.8036 36.9205 61.5124 37.1932 61.1973C37.4222 60.9115 37.6198 60.6083 37.7842 60.2915C37.9466 60.0116 38.0821 59.7209 38.1894 59.422C38.2966 59.1349 38.3811 58.842 38.4427 58.5452C38.503 58.2551 38.5453 57.9624 38.5692 57.6684C38.5692 57.4727 38.5692 57.2772 38.5692 57.0669L38.6115 56.7989ZM12.983 43.6904C13.0273 43.8273 13.05 43.9686 13.0506 44.1106C13.0478 44.2626 13.0223 44.4137 12.9746 44.56C12.9412 44.6522 12.8988 44.7418 12.848 44.828L13.5149 45.4368L14.4687 46.3136L15.3973 47.1831L16.3428 48.0599L17.2966 48.9294L17.8284 49.4149V55.0017L17.972 55.0525C18.1863 55.1371 18.3789 55.2576 18.5385 55.407C18.6979 55.5562 18.8209 55.7314 18.9005 55.9221C18.9822 56.1023 19.025 56.2939 19.0272 56.4873C19.0356 56.5911 19.0356 56.6951 19.0272 56.7989C18.9478 57.1369 18.7399 57.4427 18.4362 57.6684C18.1251 57.9128 17.7184 58.0484 17.2966 58.0484C16.8748 58.0484 16.4683 57.9128 16.1571 57.6684C15.9651 57.5182 15.8107 57.3359 15.7034 57.1329C15.596 56.9299 15.5378 56.7103 15.5324 56.4873C15.5348 56.3016 15.5748 56.1177 15.6505 55.9438C15.7301 55.7531 15.8532 55.578 16.0127 55.4287C16.1721 55.2793 16.3647 55.1588 16.5791 55.0742L16.7226 55.0236V49.8062L15.7772 48.9367L14.8233 48.0671L13.8694 47.1903L12.9155 46.3208L12.0714 45.531C11.8351 45.6319 11.5755 45.6864 11.3116 45.6904C10.9625 45.6947 10.6204 45.6062 10.3324 45.4368C9.96942 45.2311 9.70551 44.9197 9.58955 44.56C9.53482 44.4148 9.50636 44.2632 9.50514 44.1106C9.50849 43.9683 9.53403 43.827 9.58111 43.6904C9.7006 43.3301 9.96732 43.0188 10.3324 42.8136C10.6221 42.6336 10.9709 42.5371 11.3285 42.5382C11.6832 42.5386 12.0288 42.635 12.3162 42.8136C12.6462 43.0339 12.8809 43.3424 12.983 43.6904Z" fill="url(#paint0_linear_188_2014)"/>
<path d="M33.1241 56.7983C33.0092 56.9132 32.9463 57.0598 32.9468 57.2112C32.9458 57.2975 32.9663 57.3829 33.0072 57.4615C33.0479 57.5404 33.108 57.6106 33.1831 57.6677C33.2343 57.7138 33.2959 57.7504 33.3641 57.7755C33.4323 57.8005 33.5058 57.8135 33.5799 57.8135C33.6542 57.8135 33.7275 57.8005 33.7956 57.7755C33.8638 57.7504 33.9254 57.7138 33.9767 57.6677C34.0506 57.6098 34.1097 57.5393 34.1504 57.4607C34.1911 57.3822 34.2125 57.2972 34.213 57.2112C34.2105 57.059 34.1447 56.9125 34.0274 56.7983C33.9737 56.7409 33.9055 56.6948 33.8279 56.6634C33.7504 56.632 33.6657 56.6163 33.5799 56.6171C33.4932 56.6172 33.4076 56.6334 33.3289 56.6647C33.2501 56.6959 33.1803 56.7416 33.1241 56.7983Z" fill="#F9BB26"/>
<path d="M16.7648 56.7982C16.8125 56.8824 16.887 56.9534 16.9795 57.0029C17.0721 57.0525 17.179 57.0788 17.288 57.0788C17.3972 57.0788 17.5041 57.0525 17.5967 57.0029C17.6891 56.9534 17.7635 56.8824 17.8115 56.7982C17.8782 56.704 17.9159 56.5968 17.9212 56.4866C17.9248 56.366 17.8854 56.2474 17.8085 56.1464C17.7318 56.0455 17.6207 55.967 17.4906 55.9215C17.4239 55.9098 17.3549 55.9098 17.288 55.9215C17.2195 55.9177 17.1508 55.925 17.0855 55.9433C16.9553 55.9888 16.8445 56.0673 16.7676 56.1683C16.6907 56.2692 16.6515 56.3879 16.6551 56.5085C16.6645 56.6111 16.702 56.7104 16.7648 56.7982Z" fill="#F9BB26"/>
<path d="M10.8475 43.6902C10.7246 43.8044 10.6581 43.955 10.6618 44.1105C10.6619 44.1949 10.6822 44.2782 10.7214 44.3554C10.7607 44.4327 10.8179 44.5023 10.8897 44.5598C10.9419 44.6073 11.0046 44.6452 11.0742 44.6713C11.1439 44.6974 11.2189 44.7113 11.2949 44.7119C11.4478 44.7082 11.593 44.6536 11.7001 44.5598C11.7707 44.5019 11.8267 44.4322 11.8645 44.3549C11.9022 44.2776 11.921 44.1943 11.9196 44.1105C11.9215 43.9567 11.8585 43.8073 11.7423 43.6902C11.686 43.6354 11.6173 43.5912 11.5404 43.5601C11.4634 43.5289 11.3799 43.5115 11.2949 43.509C11.2096 43.5103 11.1255 43.527 11.0484 43.5583C10.9712 43.5894 10.9027 43.6345 10.8475 43.6902Z" fill="#F9BB26"/>
<path d="M25.8649 36.6977C25.8529 36.7625 25.8529 36.8285 25.8649 36.8934C25.8547 36.9694 25.8633 37.0466 25.8901 37.1198C25.917 37.1928 25.9616 37.2601 26.0211 37.3174C26.0803 37.3746 26.1533 37.4206 26.2347 37.4518C26.3162 37.4832 26.4045 37.4994 26.4938 37.4994C26.5832 37.4994 26.6715 37.4832 26.7528 37.4518C26.8344 37.4206 26.9072 37.3746 26.9666 37.3174C27.0259 37.2601 27.0706 37.1928 27.0976 37.1198C27.1244 37.0466 27.133 36.9694 27.1228 36.8934C27.121 36.8266 27.1066 36.7606 27.0804 36.6977C27.0523 36.5821 26.9787 36.4782 26.8718 36.4037C26.765 36.3291 26.6315 36.2885 26.4938 36.2885C26.3561 36.2885 26.2227 36.3291 26.1158 36.4037C26.009 36.4782 25.9352 36.5821 25.9071 36.6977H25.8649Z" fill="#F9BB26"/>
<path d="M21.6439 33.2049C21.6304 33.2768 21.6304 33.3502 21.6439 33.4223C21.6336 33.4984 21.6422 33.5755 21.6691 33.6487C21.6961 33.7217 21.7407 33.7891 21.8 33.8463C21.8595 33.9036 21.9323 33.9493 22.0138 33.9807C22.0952 34.0121 22.1834 34.0283 22.2729 34.0283C22.3621 34.0283 22.4504 34.0121 22.532 33.9807C22.6133 33.9493 22.6861 33.9036 22.7456 33.8463C22.805 33.7891 22.8497 33.7217 22.8765 33.6487C22.9034 33.5755 22.9119 33.4984 22.9017 33.4223C22.9016 33.3483 22.8872 33.2749 22.8596 33.2049C22.8246 33.0943 22.7482 32.9965 22.6421 32.9268C22.5362 32.8572 22.4063 32.8195 22.2729 32.8195C22.1393 32.8195 22.0095 32.8572 21.9034 32.9268C21.7974 32.9965 21.7209 33.0943 21.6862 33.2049H21.6439Z" fill="#F9BB26"/>
<path d="M34.163 28.835C34.1669 28.7964 34.1669 28.7575 34.163 28.7189C34.163 28.5748 34.0963 28.4365 33.9775 28.3346C33.8588 28.2327 33.6978 28.1754 33.5298 28.1754C33.362 28.1754 33.2009 28.2327 33.0822 28.3346C32.9634 28.4365 32.8967 28.5748 32.8967 28.7189C32.8927 28.7575 32.8927 28.7964 32.8967 28.835C32.9128 28.9651 32.9833 29.086 33.095 29.175C33.2067 29.2642 33.3521 29.316 33.5045 29.3204C33.6647 29.3233 33.8205 29.2754 33.9419 29.1858C34.0635 29.0962 34.1422 28.9712 34.163 28.835Z" fill="#F9BB26"/>
<path d="M13.2618 23.8643C13.2598 23.768 13.2308 23.6736 13.1774 23.5889C13.1321 23.495 13.0562 23.4144 12.9589 23.3566C12.8616 23.2988 12.747 23.2661 12.6287 23.2628C12.511 23.2679 12.3972 23.3011 12.3002 23.3588C12.2033 23.4163 12.127 23.4961 12.08 23.5889C12.0266 23.6736 11.9977 23.768 11.9956 23.8643C11.9886 24.0145 12.0498 24.1612 12.1663 24.2734C12.2829 24.3855 12.4456 24.4545 12.6203 24.4657C12.7979 24.4581 12.965 24.3908 13.0851 24.2782C13.2052 24.1656 13.2687 24.0168 13.2618 23.8643Z" fill="#F9BB26"/>
<path d="M17.3555 20.8858C17.3555 20.7416 17.2888 20.6034 17.1701 20.5015C17.0515 20.3995 16.8904 20.3423 16.7224 20.3423C16.5546 20.3423 16.3935 20.3995 16.2748 20.5015C16.1561 20.6034 16.0894 20.7416 16.0894 20.8858C16.0894 20.8858 16.0894 20.9364 16.0894 20.9655C16.0894 21.1057 16.1543 21.2403 16.2699 21.3396C16.3854 21.4387 16.5422 21.4944 16.7056 21.4944C16.869 21.4944 17.0258 21.4387 17.1414 21.3396C17.2569 21.2403 17.3218 21.1057 17.3218 20.9655C17.3218 20.9655 17.3555 20.9147 17.3555 20.8858Z" fill="#F9BB26"/>
<path d="M21.3067 16.5309C21.2118 16.5338 21.1191 16.5561 21.0366 16.5962C20.9256 16.6494 20.8333 16.7273 20.7694 16.8216C20.7057 16.9159 20.6724 17.0232 20.6736 17.1323C20.6792 17.2536 20.723 17.3713 20.8002 17.473C20.8524 17.5493 20.926 17.6132 21.0147 17.6588C21.1031 17.7045 21.2036 17.7302 21.3067 17.7338C21.41 17.7309 21.5106 17.7053 21.5992 17.6597C21.6878 17.614 21.7614 17.5497 21.8132 17.473C21.8695 17.4037 21.9085 17.3251 21.9276 17.2421C21.9469 17.1593 21.9456 17.0738 21.9242 16.9914C21.9028 16.909 21.8616 16.8313 21.8031 16.7631C21.7448 16.695 21.6705 16.6382 21.5852 16.5962C21.4996 16.5561 21.4042 16.5336 21.3067 16.5309Z" fill="#F9BB26"/>
<path d="M20.3359 9.92252C20.453 9.91889 20.5665 9.88708 20.6635 9.83069C20.7605 9.77431 20.8371 9.69565 20.8845 9.60368C20.9381 9.51644 20.967 9.41965 20.969 9.32108C20.9748 9.17964 20.9193 9.04137 20.8132 8.93299C20.7073 8.82459 20.5582 8.75376 20.395 8.73413H20.3359H20.2852C20.1219 8.75376 19.9729 8.82459 19.867 8.93299C19.7609 9.04137 19.7054 9.17964 19.7112 9.32108C19.7133 9.41965 19.7421 9.51644 19.7957 9.60368C19.8416 9.69508 19.9167 9.77349 20.0122 9.82989C20.1078 9.88629 20.2199 9.9184 20.3359 9.92252Z" fill="#F9BB26"/>
<path d="M7.67344 31.8644C7.76121 31.8205 7.83686 31.7609 7.89516 31.6897C7.95347 31.6184 7.99301 31.537 8.01108 31.4513C8.01517 31.4104 8.01517 31.3691 8.01108 31.3281C8.02138 31.252 8.0128 31.1748 7.98588 31.1017C7.95899 31.0287 7.91437 30.9613 7.85497 30.904C7.79558 30.8468 7.72275 30.8009 7.64127 30.7696C7.55979 30.7382 7.47149 30.722 7.3822 30.722C7.2929 30.722 7.2046 30.7382 7.12312 30.7696C7.04164 30.8009 6.96881 30.8468 6.90941 30.904C6.85002 30.9613 6.8054 31.0287 6.77851 31.1017C6.75159 31.1748 6.74301 31.252 6.75331 31.3281C6.74924 31.3691 6.74924 31.4104 6.75331 31.4513C6.76968 31.5376 6.80856 31.6195 6.86704 31.691C6.92551 31.7625 7.00206 31.8218 7.09097 31.8644C7.17158 31.9013 7.26129 31.9211 7.35265 31.9223C7.46383 31.9297 7.57517 31.9096 7.67344 31.8644Z" fill="#F9BB26"/>
<path d="M78.9532 36.5159C78.8406 36.192 78.8706 35.8438 79.0377 35.5376C80.1505 33.2236 80.6911 30.7363 80.6247 28.2334C80.4389 23.8059 78.5818 20.2626 74.817 17.8713C74.5166 17.6952 74.2731 17.4565 74.1092 17.1778C73.9454 16.899 73.8665 16.5891 73.88 16.2771C73.6436 11.596 69.8448 7.96563 65.2021 7.96563C64.704 7.96563 64.5267 7.79172 64.3578 7.3642C63.6305 4.82662 61.7606 2.64024 59.1579 1.28458C57.2037 0.241705 54.8882 -0.186051 52.6074 0.0744534C51.0119 0.270103 49.391 0.175901 47.8294 0.726617C46.0801 1.24602 44.5574 2.21183 43.4652 3.49469C42.7389 4.36929 42.2775 5.38532 42.123 6.45117C41.9316 8.65001 41.8837 10.8563 41.9794 13.0597C41.9372 19.5813 41.9794 26.103 41.9794 32.574C41.9794 40.7405 41.9794 48.8998 41.9794 57.0663C41.8926 58.2891 42.2304 59.5064 42.9503 60.5642C43.6701 61.6219 44.7395 62.4726 46.0229 63.0082C47.6002 63.7644 49.4556 63.972 51.2061 63.588C51.9184 63.4334 52.5726 63.1239 53.1053 62.6893C53.1763 62.6155 53.2753 62.5655 53.385 62.5483C53.4947 62.5311 53.608 62.5477 53.7047 62.5951C58.6598 64.385 65.0163 62.6459 68.2747 58.5155C68.7846 57.8414 69.4999 57.3001 70.3429 56.9504C74.0728 55.3872 76.9702 52.6644 78.4468 49.3344C79.8487 46.2078 80.2877 42.8235 79.7214 39.5087C79.5691 38.4934 79.312 37.492 78.9532 36.5159ZM45.5586 6.08161C46.2448 4.97352 47.4127 4.14278 48.8086 3.77004C48.1147 5.2263 47.7537 6.78357 47.7449 8.35693C47.7329 9.68451 47.9403 11.0069 48.3613 12.2844C48.5607 12.7519 48.6507 13.2485 48.6261 13.7459C48.6014 14.2433 48.4627 14.7316 48.2176 15.1829C48.0129 15.6006 47.6331 15.9372 47.1535 16.1264C46.6737 16.3156 46.1287 16.3435 45.6262 16.2046C45.3223 16.1105 45.221 15.98 45.221 15.6466C45.221 12.8713 45.221 10.0888 45.221 7.30622C45.2289 6.88416 45.3442 6.46869 45.5586 6.08885V6.08161ZM49.5938 60.588C48.6681 60.5002 47.7724 60.2538 46.9599 59.8633C46.3813 59.5689 45.9103 59.1414 45.6 58.6292C45.2898 58.1171 45.1526 57.5405 45.2042 56.9649C45.2547 52.2113 45.2042 47.4649 45.2042 42.7115C45.2042 41.5593 45.3982 41.3782 46.5801 41.3999C46.9677 41.4003 47.3477 41.4931 47.6774 41.668C48.1755 41.9361 48.7243 42.2114 48.817 42.8419C48.8888 43.3351 48.8888 43.8341 48.817 44.3274C48.5545 45.7442 48.1878 47.1456 47.7197 48.5229C47.1118 50.4866 46.4197 52.4359 46.5885 54.5519C46.749 56.5301 47.323 58.3199 48.8677 59.675L49.7119 60.3995L49.5938 60.588ZM76.9358 32.1826C76.6953 33.2171 76.286 34.2172 75.7202 35.1537C75.5755 35.3604 75.4906 35.5941 75.473 35.8351C75.4554 36.0758 75.5055 36.3169 75.6189 36.5376C76.2066 37.9853 76.5672 39.4937 76.691 41.023C77.0211 43.8497 76.3847 46.6977 74.8591 49.2185C73.7938 50.9545 72.2087 52.4153 70.267 53.4503C70.267 53.3416 70.267 53.2693 70.267 53.1968C70.6295 51.3551 70.5549 49.4696 70.0474 47.6534C69.7943 46.6968 69.0091 46.2041 68.1059 46.4215C67.2026 46.6389 66.7891 47.4432 67 48.4287C67.2593 49.5079 67.3584 50.6108 67.2955 51.7112C67.0338 55.0518 64.4086 58.4068 61.2177 59.3851C58.0267 60.3633 55.1481 59.8199 52.3371 58.3416C51.4854 57.8817 50.7885 57.2383 50.3162 56.4756C49.8438 55.7129 49.6122 54.8572 49.6443 53.9938C49.6433 52.5504 49.9024 51.1157 50.4125 49.7403C51.124 47.9844 51.6663 46.1813 52.0332 44.3491C52.2345 43.4163 52.1419 42.4543 51.7649 41.5625C51.3879 40.6708 50.7404 39.8816 49.8891 39.2767C49.3235 38.8755 48.6661 38.5805 47.9595 38.4107C47.253 38.241 46.5126 38.2002 45.7866 38.2912C45.3644 38.3346 45.2294 38.2478 45.2294 37.7985C45.2294 34.1753 45.2294 30.6247 45.2294 27.0378C45.2294 26.516 45.4573 26.3131 45.9216 26.545C46.9649 27.0046 47.841 27.7015 48.4542 28.5595C49.7402 30.5429 50.2185 32.838 49.8131 35.0812C49.755 35.2781 49.7428 35.4831 49.7771 35.684C49.8115 35.8851 49.8917 36.0785 50.0133 36.2528C50.1348 36.4272 50.2954 36.5792 50.4855 36.7002C50.6757 36.8213 50.8918 36.9088 51.1216 36.9579C51.9657 37.1028 52.81 36.4725 52.9197 35.5087C53.367 31.7478 52.7508 28.2624 49.9736 25.4799C49.7035 25.2045 49.8215 25.1392 50.0833 25.0233C50.525 24.8337 50.9508 24.6183 51.3579 24.3785C52.7495 23.6124 53.8199 22.4853 54.4137 21.1611C54.6041 20.7877 54.6321 20.3681 54.4926 19.9785C54.3533 19.5889 54.0556 19.2552 53.6541 19.0379C53.4489 18.9565 53.2252 18.9153 52.9991 18.9175C52.7731 18.9196 52.5504 18.9651 52.3473 19.0504C52.1444 19.1359 51.9662 19.2589 51.8257 19.4111C51.6852 19.5631 51.5859 19.7401 51.5353 19.9291C51.3996 20.2558 51.1901 20.5562 50.919 20.8133C50.2358 21.4406 49.4116 21.9425 48.496 22.2886C47.5806 22.6349 46.5928 22.8183 45.5924 22.8277C45.2801 22.8277 45.204 22.6973 45.2126 22.4146C45.2126 21.5378 45.2126 20.661 45.2126 19.7843C45.2126 19.4509 45.3055 19.3641 45.6515 19.4075C48.1839 19.7553 50.6489 18.1249 51.4087 15.7191C51.8784 14.1966 51.8344 12.5907 51.282 11.0888C50.6502 9.31662 50.6947 7.41755 51.4087 5.66857C51.9489 4.36424 52.8352 3.34977 54.3547 3.32803C57.0729 3.28455 59.1833 4.44395 60.6605 6.74826C61.3447 8.00871 61.8192 9.34542 62.0702 10.7192C62.1799 11.1395 62.3573 11.3134 62.8131 11.2554C63.5847 11.1492 64.3624 11.0791 65.143 11.0453C67.7936 10.9511 70.2079 13.0163 70.7143 15.8206C70.7903 16.2192 70.5793 16.2046 70.3007 16.1684C69.3026 16.0123 68.2783 16.0293 67.2881 16.2185C66.2979 16.4077 65.3619 16.7652 64.5352 17.2698C64.1383 17.551 63.6511 17.7218 63.1383 17.7592C62.6256 17.7969 62.1117 17.6994 61.6651 17.48C61.2513 17.319 60.9214 17.0324 60.7391 16.6751C60.5567 16.3179 60.5348 15.9155 60.6773 15.5452C60.8045 15.1667 60.7676 14.7615 60.5737 14.4046C60.3797 14.0475 60.0417 13.7629 59.6222 13.6032C59.4139 13.5516 59.1953 13.5384 58.9807 13.5645C58.7661 13.5907 58.5602 13.6555 58.3769 13.7547C58.1934 13.854 58.0366 13.9854 57.9167 14.1404C57.7966 14.2953 57.7162 14.4704 57.6807 14.6539C57.4647 15.2779 57.396 15.9326 57.4787 16.5796C57.5614 17.2267 57.7936 17.853 58.1618 18.422C58.7069 19.3719 59.642 20.1153 60.7872 20.5089C61.1754 20.6466 61.2091 20.7988 61.0995 21.1611C60.9898 21.5234 60.8209 21.9292 60.6859 22.3133C60.1079 24.015 60.1819 25.8313 60.8969 27.4943C60.94 27.6803 61.0314 27.8557 61.164 28.0074C61.2968 28.1592 61.4674 28.2834 61.6634 28.3711C61.8594 28.4587 62.0758 28.5075 62.2967 28.5137C62.5176 28.5199 62.7373 28.4836 62.9397 28.4074C63.3586 28.2166 63.6783 27.8973 63.8347 27.5131C63.9912 27.1289 63.9731 26.7081 63.7838 26.335C62.4416 23.1031 65.1092 19.2916 68.7136 19.2335C70.367 19.1991 71.9803 19.6718 73.2636 20.5668C74.5044 21.3843 75.5023 22.4421 76.176 23.6538C77.6183 26.3253 77.8881 29.354 76.9358 32.1826Z" fill="url(#paint1_linear_188_2014)"/>
<path d="M68.6884 25.4509C68.2714 25.5114 67.8988 25.7101 67.6508 26.0043C67.4029 26.2984 67.2996 26.6644 67.3631 27.0233C67.3367 27.3733 67.4589 27.7197 67.7073 27.9981C67.9557 28.2766 68.3132 28.4683 68.7138 28.5378C69.1664 28.5581 69.6017 28.6946 69.9629 28.9298C70.3243 29.1649 70.5948 29.4879 70.7397 29.8566C71.1691 30.6559 71.3977 31.5239 71.4107 32.404C71.4239 33.2841 71.2211 34.1568 70.8156 34.9653C70.5381 35.5673 70.0186 36.0641 69.3512 36.3658C68.6838 36.6676 67.9127 36.7542 67.1774 36.6101C66.0716 36.4651 65.0501 36.0231 63.9696 35.8202C59.4366 34.9508 56.043 37.7116 54.9288 41.6173C54.6576 42.5086 54.5354 43.4283 54.5657 44.3491C54.5657 47.081 55.4606 49.4216 57.7904 51.0591C58.9522 51.8577 60.4151 52.2625 61.9014 52.1968C62.1243 52.1823 62.3413 52.1299 62.5403 52.0427C62.7393 51.9555 62.9162 51.8353 63.0606 51.6891C63.2051 51.5428 63.3143 51.3734 63.3819 51.1907C63.4496 51.0078 63.4743 50.8155 63.4548 50.6243C63.4949 50.2465 63.361 49.8702 63.0817 49.5762C62.8023 49.2823 62.3998 49.0939 61.9605 49.0519C58.6852 49.0519 57.4781 46.2984 57.7398 43.7621C57.8057 42.6328 58.2097 41.5372 58.9131 40.581C60.1794 38.9506 62.0197 38.4652 64.2651 39.1318C65.4719 39.5526 66.7612 39.7714 68.0637 39.7767C70.8917 39.7043 72.943 38.3782 73.9305 35.7406C75.1039 32.5957 74.7748 29.5667 72.5208 26.9436C72.1072 26.4132 71.5295 25.9924 70.8524 25.7286C70.1752 25.4649 69.4258 25.3687 68.6884 25.4509Z" fill="url(#paint2_linear_188_2014)"/>
<path d="M123.766 23.2301V24.2527H118.662V23.021C118.662 19.6628 116.996 17.6874 113.138 17.6874C109.281 17.6874 107.629 19.6628 107.629 22.9629C107.629 31.3526 123.826 32.1427 123.826 42.7169C123.826 48.3758 120.313 52.0129 112.928 52.0129C105.543 52.0129 102.106 48.3294 102.106 42.7169V40.5324H107.149V42.8564C107.149 46.2145 108.935 48.19 112.793 48.19C116.651 48.19 118.452 46.2145 118.452 42.8564C118.452 34.5247 102.316 33.723 102.316 23.2069C102.316 17.3968 105.768 13.9109 113.003 13.9109C120.239 13.9109 123.766 17.5828 123.766 23.2301Z" fill="#404040"/>
<path d="M143.738 51.6285V18.0583H134.837V14.2701H157.998V18.0583H149.112V51.6285H143.738Z" fill="#404040"/>
<path d="M182.777 51.6285H175.407L168.756 14.2701H173.995L179.655 46.0742L185.029 14.3166H190.342L195.641 46.1323L201.089 14.2701H205.788L199.228 51.6285H192.128L187.536 26.2737L182.777 51.6285Z" fill="#404040"/>
<path d="M223.766 14.2701V51.6285H218.377V14.2701H223.766Z" fill="#404040"/>
<path d="M242.269 51.6285H237.435V14.2701H244.265L255.434 41.2752V14.2701H260.192V51.6285H254.607L242.269 21.4165V51.6285Z" fill="#404040"/>
<path d="M279.323 14.2701V51.6285H273.934V14.2701H279.323Z" fill="#404040"/>
</g>
<defs>
<linearGradient id="paint0_linear_188_2014" x1="8.35709" y1="57.7916" x2="35.9155" y2="2.18521" gradientUnits="userSpaceOnUse">
<stop stop-color="#F68D1F"/>
<stop offset="1" stop-color="#FBCE29"/>
</linearGradient>
<linearGradient id="paint1_linear_188_2014" x1="38.8054" y1="59.4648" x2="65.9641" y2="4.65803" gradientUnits="userSpaceOnUse">
<stop stop-color="#9454A1"/>
<stop offset="1" stop-color="#528EF6"/>
</linearGradient>
<linearGradient id="paint2_linear_188_2014" x1="56.3806" y1="50.436" x2="69.0579" y2="24.8551" gradientUnits="userSpaceOnUse">
<stop stop-color="#7974B8"/>
<stop offset="1" stop-color="#528EF6"/>
</linearGradient>
<clipPath id="clip0_188_2014">
<rect width="280" height="65" fill="white"/>
</clipPath>
</defs>
</svg>
